<svg data-v-423bf9ae="" xmlns="http://www.w3.org/2000/svg" viewBox="0 0 472 90" class="iconLeftSlogan"><!----><!----><!----><g data-v-423bf9ae="" id="2a2e5b9f-a109-4b55-9da9-493ed17d9bf3" fill="black" transform="matrix(4.160887634018687,0,0,4.160887634018687,140.6503696277595,-16.061026346013406)"><path d="M4.49 13.83L4.49 13.83L4.49 13.83Q4.49 14.66 2.88 14.66L2.88 14.66L2.88 14.66Q2.53 14.66 2.47 14.30L2.47 14.30L2.47 14.30Q2.41 13.94 2.41 13.41L2.41 13.41L2.41 13.41Q2.41 12.88 2.48 12.27L2.48 12.27L2.48 12.27Q2.56 11.66 2.69 10.95L2.69 10.95L2.69 10.95Q2.93 9.58 3.37 7.99L3.37 7.99L3.37 7.99Q3.81 6.40 4.24 5.53L4.24 5.53L4.24 5.53Q3.36 5.59 2.49 5.85L2.49 5.85L2.49 5.85Q1.62 6.10 1.26 6.21L1.26 6.21L1.26 6.21Q0.90 6.31 0.66 6.31L0.66 6.31L0.66 6.31Q0.42 6.31 0.42 6.16L0.42 6.16L0.42 6.16Q0.42 5.98 0.70 5.62L0.70 5.62L0.70 5.62Q0.98 5.26 1.50 4.90L1.50 4.90L1.50 4.90Q2.81 4.00 4.42 3.99L4.42 3.99L9.03 4.03L9.03 4.03Q9.41 4.03 9.41 4.33L9.41 4.33L9.41 4.33Q9.41 4.41 9.30 4.63L9.30 4.63L9.30 4.63Q9.18 4.84 9.10 5.10L9.10 5.10L9.10 5.10Q8.92 5.60 8.34 5.60L8.34 5.60L8.34 5.60Q7.76 5.60 5.57 5.52L5.57 5.52L5.57 5.52Q5.52 6.13 5.35 7.09L5.35 7.09L5.35 7.09Q5.18 8.05 4.98 9.18L4.98 9.18L4.98 9.18Q4.51 12.08 4.49 13.83ZM12.81 9.74L12.81 9.74L12.81 9.74Q12.81 9.24 12.21 9.24L12.21 9.24L12.21 9.24Q11.62 9.24 11.05 10.16L11.05 10.16L11.05 10.16Q10.47 11.07 10.33 12.03L10.33 12.03L10.33 12.03Q10.36 12.35 10.39 12.67L10.39 12.67L10.39 12.67Q10.42 12.99 10.42 13.30L10.42 13.30L10.42 13.30Q10.42 14.04 9.93 14.31L9.93 14.31L9.93 14.31Q9.70 14.43 9.50 14.55L9.50 14.55L9.50 14.55Q9.30 14.66 9.03 14.66L9.03 14.66L9.03 14.66Q8.76 14.66 8.56 14.30L8.56 14.30L8.56 14.30Q8.36 13.94 8.36 13.19L8.36 13.19L8.36 13.19Q8.36 11.07 8.67 9.52L8.67 9.52L8.67 9.52Q9.14 7.11 10.56 4.37L10.56 4.37L10.56 4.37Q10.75 3.99 11.13 4.00L11.13 4.00L11.13 4.00Q11.51 4.00 11.75 4.52L11.75 4.52L11.75 4.52Q11.98 5.04 11.98 5.39L11.98 5.39L11.98 5.39Q11.97 5.74 11.87 6.07L11.87 6.07L11.87 6.07Q11.76 6.40 11.60 6.71L11.60 6.71L11.60 6.71Q11.44 7.03 11.23 7.36L11.23 7.36L11.23 7.36Q11.03 7.69 10.84 8.06L10.84 8.06L10.63 9.07L10.63 9.07Q11.17 8.16 12.10 7.85L12.10 7.85L12.10 7.85Q12.43 7.74 12.84 7.74L12.84 7.74L12.84 7.74Q13.79 7.74 14.28 8.17L14.28 8.17L14.28 8.17Q14.77 8.60 14.77 9.37L14.77 9.37L14.77 9.37Q14.77 10.15 14.57 10.95L14.57 10.95L14.57 10.95Q14.36 11.75 14.27 12.09L14.27 12.09L14.27 12.09Q14.18 12.43 14.18 12.66L14.18 12.66L14.18 12.66Q14.18 12.88 14.34 12.88L14.34 12.88L14.34 12.88Q14.55 12.88 14.85 12.61L14.85 12.61L14.85 12.61Q15.16 12.35 15.47 12.03L15.47 12.03L15.47 12.03Q15.78 11.72 16.04 11.45L16.04 11.45L16.04 11.45Q16.30 11.19 16.39 11.19L16.39 11.19L16.39 11.19Q16.59 11.19 16.59 11.66L16.59 11.66L16.59 11.66Q16.59 12.64 15.62 13.55L15.62 13.55L15.62 13.55Q14 14.50 13.55 14.50L13.55 14.50L13.55 14.50Q13.51 14.50 13.50 14.49L13.50 14.49L13.50 14.49Q12.38 14.49 12.38 12.70L12.38 12.70L12.38 12.70Q12.38 11.93 12.52 11.28L12.52 11.28L12.52 11.28Q12.67 10.64 12.74 10.35L12.74 10.35L12.74 10.35Q12.81 10.05 12.81 9.74ZM19.15 12.92L19.15 12.92L19.15 12.92Q20.24 12.92 21.27 12.05L21.27 12.05L21.27 12.05Q21.64 11.73 21.88 11.46L21.88 11.46L21.88 11.46Q22.12 11.19 22.25 11.19L22.25 11.19L22.25 11.19Q22.44 11.19 22.44 11.58L22.44 11.58L22.44 11.58Q22.44 11.97 22.23 12.45L22.23 12.45L22.23 12.45Q22.02 12.94 21.53 13.40L21.53 13.40L21.53 13.40Q20.33 14.53 18.23 14.53L18.23 14.53L18.23 14.53Q16.56 14.53 15.96 13.33L15.96 13.33L15.96 13.33Q15.75 12.91 15.75 12.12L15.75 12.12L15.75 12.12Q15.75 11.34 16.06 10.49L16.06 10.49L16.06 10.49Q16.37 9.65 16.88 9.03L16.88 9.03L16.88 9.03Q17.39 8.41 18.06 8.07L18.06 8.07L18.06 8.07Q18.73 7.73 19.49 7.73L19.49 7.73L19.49 7.73Q20.26 7.73 20.67 8.11L20.67 8.11L20.67 8.11Q21.08 8.48 21.08 9.09L21.08 9.09L21.08 9.09Q21.08 9.69 20.78 10.07L20.78 10.07L20.78 10.07Q20.48 10.46 20.01 10.72L20.01 10.72L20.01 10.72Q19.53 10.98 18.95 11.18L18.95 11.18L18.95 11.18Q18.37 11.38 17.81 11.63L17.81 11.63L17.81 11.98L17.81 11.98Q17.82 12.49 18.23 12.70L18.23 12.70L18.23 12.70Q18.63 12.91 19.15 12.92ZM18.91 8.97L18.91 8.97L18.91 8.97Q18.19 8.97 17.91 10.67L17.91 10.67L17.91 10.67Q18.20 10.47 18.46 10.32L18.46 10.32L18.46 10.32Q18.72 10.16 18.91 10.02L18.91 10.02L18.91 10.02Q19.33 9.72 19.35 9.32L19.35 9.32L19.35 9.32Q19.35 8.97 18.91 8.97ZM31.42 13.83L31.42 13.83L31.42 13.83Q31.42 14.66 29.81 14.66L29.81 14.66L29.81 14.66Q29.46 14.66 29.39 14.30L29.39 14.30L29.39 14.30Q29.33 13.94 29.33 13.41L29.33 13.41L29.33 13.41Q29.33 12.88 29.41 12.27L29.41 12.27L29.41 12.27Q29.48 11.66 29.61 10.95L29.61 10.95L29.61 10.95Q29.85 9.58 30.29 7.99L30.29 7.99L30.29 7.99Q30.73 6.40 31.16 5.53L31.16 5.53L31.16 5.53Q30.28 5.59 29.41 5.85L29.41 5.85L29.41 5.85Q28.55 6.10 28.18 6.21L28.18 6.21L28.18 6.21Q27.82 6.31 27.58 6.31L27.58 6.31L27.58 6.31Q27.34 6.31 27.34 6.16L27.34 6.16L27.34 6.16Q27.34 5.98 27.62 5.62L27.62 5.62L27.62 5.62Q27.90 5.26 28.42 4.90L28.42 4.90L28.42 4.90Q29.74 4.00 31.35 3.99L31.35 3.99L35.95 4.03L35.95 4.03Q36.33 4.03 36.33 4.33L36.33 4.33L36.33 4.33Q36.33 4.41 36.22 4.63L36.22 4.63L36.22 4.63Q36.11 4.84 36.02 5.10L36.02 5.10L36.02 5.10Q35.84 5.60 35.26 5.60L35.26 5.60L35.26 5.60Q34.68 5.60 32.49 5.52L32.49 5.52L32.49 5.52Q32.44 6.13 32.27 7.09L32.27 7.09L32.27 7.09Q32.10 8.05 31.91 9.18L31.91 9.18L31.91 9.18Q31.43 12.08 31.42 13.83ZM40.03 13.26L40.03 13.26L40.03 13.26Q38.92 14.56 37.37 14.56L37.37 14.56L37.37 14.56Q35.83 14.56 35.06 13.77L35.06 13.77L35.06 13.77Q34.29 12.98 34.30 11.80L34.30 11.80L34.30 11.80Q34.29 10.14 35.35 8.93L35.35 8.93L35.35 8.93Q36.41 7.73 38.14 7.73L38.14 7.73L38.14 7.73Q38.92 7.73 39.40 7.92L39.40 7.92L39.40 7.92Q40.22 8.26 40.22 8.55L40.22 8.55L40.22 8.55Q40.22 8.78 39.07 8.79L39.07 8.79L39.07 8.79Q37.91 8.79 37.13 9.58L37.13 9.58L37.13 9.58Q36.36 10.37 36.36 11.58L36.36 11.58L36.36 11.58Q36.36 12.21 36.73 12.63L36.73 12.63L36.73 12.63Q37.10 13.06 37.78 13.06L37.78 13.06L37.78 13.06Q38.46 13.06 38.91 12.78L38.91 12.78L38.91 12.78Q37.91 12.11 37.91 10.84L37.91 10.84L37.91 10.84Q37.90 10.16 38.39 9.61L38.39 9.61L38.39 9.61Q38.89 9.06 39.67 9.05L39.67 9.05L39.67 9.05Q40.45 9.04 40.78 9.48L40.78 9.48L40.78 9.48Q41.12 9.91 41.12 10.59L41.12 10.59L41.12 10.59Q41.12 11.27 40.80 12.03L40.80 12.03L40.88 12.03L40.88 12.03Q41.50 12.01 41.94 11.59L41.94 11.59L41.94 11.59Q42.11 11.42 42.23 11.30L42.23 11.30L42.23 11.30Q42.35 11.17 42.48 11.17L42.48 11.17L42.48 11.17Q42.67 11.17 42.67 11.63L42.67 11.63L42.67 11.63Q42.67 12.49 42.17 12.92L42.17 12.92L42.17 12.92Q41.66 13.34 41.05 13.34L41.05 13.34L41.05 13.34Q40.45 13.34 40.03 13.26ZM39.90 11.63L39.90 11.63L39.90 11.63Q40.14 11.13 40.14 10.65L40.14 10.65L40.14 10.65Q40.14 10.18 39.83 10.18L39.83 10.18L39.83 10.18Q39.70 10.18 39.62 10.36L39.62 10.36L39.62 10.36Q39.54 10.54 39.54 10.71L39.54 10.71L39.54 10.71Q39.54 11.27 39.90 11.63ZM45.74 13.43L45.74 13.43L45.74 13.43Q45.04 14.39 43.86 14.39L43.86 14.39L43.86 14.39Q42.91 14.39 42.34 13.99L42.34 13.99L42.34 13.99Q41.78 13.59 41.78 12.73L41.78 12.73L41.78 12.73Q41.78 12.36 41.88 12.05L41.88 12.05L41.88 12.05Q41.99 11.75 42.22 11.30L42.22 11.30L42.63 7.98L42.63 7.98Q43.06 7.64 43.81 7.64L43.81 7.64L43.81 7.64Q44.44 7.64 44.52 8.48L44.52 8.48L44.52 8.48Q44.55 8.74 44.55 9.08L44.55 9.08L44.55 9.08Q44.55 9.42 44.44 9.80L44.44 9.80L44.44 9.80Q43.88 11.73 43.89 12.39L43.89 12.39L43.89 12.39Q43.89 12.89 44.48 12.89L44.48 12.89L44.48 12.89Q45.07 12.89 45.35 12.52L45.35 12.52L45.35 12.52Q45.63 12.14 45.82 11.58L45.82 11.58L45.82 11.58Q46.19 10.02 46.50 9.02L46.50 9.02L46.50 9.02Q46.82 8.01 46.90 7.81L46.90 7.81L46.90 7.81Q47.04 7.48 47.43 7.46L47.43 7.46L47.43 7.46Q47.82 7.48 48.17 8.02L48.17 8.02L48.17 8.02Q48.52 8.55 48.52 8.85L48.52 8.85L48.52 8.85Q48.50 9.83 47.31 13.79L47.31 13.79L47.31 13.79Q48.22 13.08 49.11 12.04L49.11 12.04L49.11 12.04Q49.42 11.68 49.63 11.43L49.63 11.43L49.63 11.43Q49.84 11.19 49.97 11.19L49.97 11.19L49.97 11.19Q50.16 11.19 50.16 11.63L50.16 11.63L50.16 11.63Q50.16 12.52 49.17 13.69L49.17 13.69L49.17 13.69Q48.19 14.87 46.76 15.53L46.76 15.53L46.76 15.53Q46.59 16.09 46.40 16.59L46.40 16.59L46.40 16.59Q46.20 17.09 45.89 17.47L45.89 17.47L45.89 17.47Q45.22 18.28 43.85 18.28L43.85 18.28L43.85 18.28Q42.92 18.28 42.27 17.75L42.27 17.75L42.27 17.75Q41.62 17.22 41.62 16.42L41.62 16.42L41.62 16.42Q41.62 15.97 41.92 15.71L41.92 15.71L41.92 15.71Q42.22 15.44 42.75 15.27L42.75 15.27L42.75 15.27Q43.27 15.09 43.97 14.96L43.97 14.96L43.97 14.96Q44.67 14.83 45.47 14.63L45.47 14.63L45.47 14.63Q45.67 13.79 45.74 13.43ZM43.83 17.21L43.83 17.21L43.83 17.21Q44.49 17.21 45.02 16.06L45.02 16.06L45.02 16.06Q44.52 16.16 44.13 16.21L44.13 16.21L44.13 16.21Q43.74 16.25 43.46 16.30L43.46 16.30L43.46 16.30Q42.90 16.38 42.91 16.59L42.91 16.59L42.91 16.59Q42.91 16.86 43.22 17.04L43.22 17.04L43.22 17.04Q43.54 17.22 43.83 17.21ZM63.80 11.14L63.80 11.14L63.80 11.14Q64.01 11.14 64.01 11.62L64.01 11.62L64.01 11.62Q64.01 12.61 63.08 13.54L63.08 13.54L63.08 13.54Q62.16 14.48 60.83 14.49L60.83 14.49L60.83 14.49Q59.89 14.49 58.66 13.75L58.66 13.75L58.66 13.75Q57.78 14.69 56.46 14.69L56.46 14.69L56.46 14.69Q55.59 14.69 55.19 14.25L55.19 14.25L55.19 14.25Q54.78 13.82 54.78 13.10L54.78 13.10L54.78 13.10Q54.78 12.39 55.31 12.03L55.31 12.03L55.31 12.03Q55.83 11.68 56.64 11.68L56.64 11.68L56.64 11.68Q57.08 11.68 57.46 11.72L57.46 11.72L57.46 11.72Q57.46 10.01 57.83 8.39L57.83 8.39L57.83 8.39Q57.37 8.15 57.04 7.85L57.04 7.85L57.04 7.85Q56.71 7.56 56.71 7.39L56.71 7.39L56.71 7.39Q56.71 6.94 56.91 6.94L56.91 6.94L56.91 6.94Q57.19 6.94 57.49 7.11L57.49 7.11L57.49 7.11Q57.79 7.27 58.14 7.35L58.14 7.35L58.14 7.35Q59.01 4.84 60.52 4.12L60.52 4.12L60.52 4.12Q61.05 3.86 61.64 3.86L61.64 3.86L61.64 3.86Q63.85 3.86 63.85 5.73L63.85 5.73L63.85 5.73Q63.85 6.79 63.06 7.56L63.06 7.56L63.06 7.56Q61.95 8.62 59.70 8.68L59.70 8.68L59.70 8.68Q59.54 9.86 59.54 11.47L59.54 11.47L59.54 11.47Q59.54 11.86 59.44 12.35L59.44 12.35L59.44 12.35Q59.93 12.60 60.40 12.81L60.40 12.81L60.40 12.81Q60.86 13.02 61.53 13.02L61.53 13.02L61.53 13.02Q61.88 13.02 62.22 12.73L62.22 12.73L62.22 12.73Q62.57 12.43 62.87 12.08L62.87 12.08L62.87 12.08Q63.17 11.73 63.41 11.44L63.41 11.44L63.41 11.44Q63.64 11.14 63.80 11.14ZM61.61 5.24L61.61 5.24L61.61 5.24Q60.44 5.24 59.91 7.48L59.91 7.48L59.91 7.48Q60.91 7.39 61.61 6.91L61.61 6.91L61.61 6.91Q62.30 6.43 62.30 5.94L62.30 5.94L62.30 5.94Q62.30 5.24 61.61 5.24ZM56.14 13.20L56.14 13.20L56.14 13.20Q56.15 13.59 56.69 13.59L56.69 13.59L56.69 13.59Q57.22 13.59 57.36 12.98L57.36 12.98L57.36 12.98Q56.97 12.78 56.71 12.78L56.71 12.78L56.71 12.78Q56.15 12.78 56.14 13.20ZM71.95 11.14L71.95 11.14L71.95 11.14Q72.20 11.14 72.20 11.79L72.20 11.79L72.20 11.79Q72.20 12.14 71.90 12.63L71.90 12.63L71.90 12.63Q71.61 13.13 71.14 13.54L71.14 13.54L71.14 13.54Q70.67 13.96 70.10 14.22L70.10 14.22L70.10 14.22Q69.52 14.49 68.98 14.49L68.98 14.49L68.98 14.49Q68.24 14.49 67.98 13.19L67.98 13.19L67.98 13.19Q67.62 13.79 67.03 14.18L67.03 14.18L67.03 14.18Q66.44 14.56 65.46 14.56L65.46 14.56L65.46 14.56Q64.47 14.56 63.87 13.94L63.87 13.94L63.87 13.94Q63.27 13.33 63.28 12.45L63.28 12.45L63.28 12.45Q63.28 10.07 64.86 8.69L64.86 8.69L64.86 8.69Q65.53 8.12 66.11 7.94L66.11 7.94L66.11 7.94Q66.70 7.76 67.34 7.76L67.34 7.76L67.34 7.76Q67.98 7.76 68.39 7.98L68.39 7.98L68.39 7.98Q68.59 7.57 68.84 7.57L68.84 7.57L68.84 7.57Q69.33 7.57 69.77 8.00L69.77 8.00L69.77 8.00Q70.21 8.43 70.21 8.81L70.21 8.81L70.21 8.81Q70.01 9.27 69.64 9.91L69.64 9.91L69.64 9.91Q69.52 10.56 69.52 11.72L69.52 11.72L69.52 11.72Q69.52 12.88 69.82 12.88L69.82 12.88L69.82 12.88Q70.18 12.88 71.58 11.42L71.58 11.42L71.58 11.42Q71.83 11.14 71.95 11.14ZM65.34 11.98L65.34 11.98L65.34 11.98Q65.34 13.06 66.14 13.06L66.14 13.06L66.14 13.06Q66.99 13.05 67.55 12.15L67.55 12.15L67.55 12.15Q67.75 11.84 67.87 11.40L67.87 11.40L67.87 11.40Q67.87 9.83 68.15 8.71L68.15 8.71L68.15 8.71Q67.02 8.93 66.18 9.80L66.18 9.80L66.18 9.80Q65.34 10.67 65.34 11.98ZM72.67 7.87L72.67 7.87L72.67 7.87Q71.64 7.42 71.64 7L71.64 7L71.64 7Q71.64 6.78 71.82 6.79L71.82 6.79L71.82 6.79Q72.07 6.79 72.39 6.91L72.39 6.91L72.39 6.91Q72.72 7.03 73.05 7.10L73.05 7.10L73.05 7.10Q74.20 4.93 75.66 4.26L75.66 4.26L75.66 4.26Q76.15 4.03 76.64 4.02L76.64 4.02L76.64 4.02Q77.60 4.02 78.11 4.49L78.11 4.49L78.11 4.49Q78.62 4.96 78.62 5.63L78.62 5.63L78.62 5.63Q78.62 6.83 77.32 7.49L77.32 7.49L77.32 7.49Q76.26 8.02 74.42 8.15L74.42 8.15L74.42 8.15Q73.77 9.77 73.77 11.63L73.77 11.63L73.77 11.63Q73.77 13.02 74.41 13.24L74.41 13.24L74.41 13.24Q74.86 13.40 75.08 13.25L75.08 13.25L75.08 13.25Q75.31 13.10 75.43 12.86L75.43 12.86L75.43 12.86Q75.56 12.61 75.56 12.14L75.56 12.14L75.56 12.14Q75.57 11.66 75.30 11.33L75.30 11.33L75.30 11.33Q75.03 11.00 74.77 10.72L74.77 10.72L74.77 10.72Q74.90 10.26 75.14 9.95L75.14 9.95L75.14 9.95Q75.59 9.35 75.91 9.35L75.91 9.35L75.91 9.35Q76.23 9.35 76.43 9.58L76.43 9.58L76.43 9.58Q76.64 9.80 76.76 10.14L76.76 10.14L76.76 10.14Q76.89 10.47 76.96 10.86L76.96 10.86L76.96 10.86Q77.04 11.26 77.14 11.59L77.14 11.59L77.14 11.59Q77.24 11.93 77.38 12.15L77.38 12.15L77.38 12.15Q77.53 12.38 77.78 12.38L77.78 12.38L77.78 12.38Q78.02 12.38 78.22 12.19L78.22 12.19L78.22 12.19Q78.41 12.00 78.57 11.77L78.57 11.77L78.57 11.77Q78.72 11.55 78.85 11.36L78.85 11.36L78.85 11.36Q78.97 11.17 79.11 11.17L79.11 11.17L79.11 11.17Q79.24 11.17 79.37 11.40L79.37 11.40L79.37 11.40Q79.51 11.62 79.51 11.82L79.51 11.82L79.51 11.82Q79.51 12.26 79.06 12.88L79.06 12.88L79.06 12.88Q78.62 13.50 77.94 13.49L77.94 13.49L77.94 13.49Q77.25 13.48 76.87 13.20L76.87 13.20L76.87 13.20Q76.64 13.79 76.06 14.18L76.06 14.18L76.06 14.18Q75.49 14.57 74.43 14.57L74.43 14.57L74.43 14.57Q73.37 14.57 72.62 14.03L72.62 14.03L72.62 14.03Q71.71 13.37 71.71 11.98L71.71 11.98L71.71 11.98Q71.71 10.01 72.67 7.87ZM77.08 5.88L77.08 5.88L77.08 5.88Q77.07 5.39 76.73 5.39L76.73 5.39L76.73 5.39Q76.38 5.39 75.84 5.91L75.84 5.91L75.84 5.91Q75.29 6.43 74.79 7.35L74.79 7.35L74.79 7.35Q76.31 7.08 76.87 6.41L76.87 6.41L76.87 6.41Q77.07 6.16 77.08 5.88Z"></path></g><!----><g data-v-423bf9ae="" id="fb588be7-8af8-4f1e-9d03-2b8426628d5f" transform="matrix(1.7999696507802718,0,0,1.7999696507802718,0.8010318734707553,1.00067554077269)" stroke="none" fill="black"><path d="M31 48a9 9 0 0 0-18 0 2 2 0 0 1-2 2H2a2 2 0 0 1-2-2V30a2 2 0 0 1 2-2h40a2 2 0 0 1 2 2v18a2 2 0 0 1-2 2h-9a2 2 0 0 1-2-2zM9.698 18.481l21-18a2 2 0 0 1 2.604 0l21 18C55.712 19.69 54.857 22 53 22H11c-1.857 0-2.711-2.31-1.302-3.519zM54 34h12a2 2 0 0 1 2 2v12a2 2 0 0 1-2 2H54a2 2 0 0 1-2-2V36a2 2 0 0 1 2-2z"></path></g><!----><g data-v-423bf9ae="" id="93d6e63f-3139-4d9f-81c5-719b2f5e5989" fill="black" transform="matrix(0.8278077432823321,0,0,0.8278077432823321,142.1164852948401,56.846051891938714)"><path d="M14.50 3.92L13.96 3.92L13.92 3.92L12.45 3.92L12.45 4.19C12.45 4.34 12.53 4.42 12.71 4.44L12.84 4.44C12.89 4.44 12.99 4.45 13.13 4.45C13.27 4.45 13.41 4.47 13.58 4.47L11.20 12.24C11.17 12.33 11.14 12.43 11.13 12.54C11.12 12.66 11.09 12.75 11.06 12.87C11.03 12.75 11.02 12.63 10.99 12.53L10.91 12.24L8.11 4.10C8.08 4.05 8.05 3.99 8.01 3.96C7.97 3.93 7.91 3.92 7.84 3.92L7.64 3.92C7.57 3.92 7.52 3.93 7.48 3.98C7.43 4.02 7.39 4.05 7.38 4.10L4.58 12.25C4.55 12.35 4.52 12.43 4.49 12.54C4.47 12.64 4.45 12.75 4.42 12.88C4.41 12.78 4.38 12.67 4.35 12.54C4.34 12.43 4.31 12.33 4.28 12.24L1.90 4.47C2.07 4.47 2.21 4.45 2.34 4.45C2.46 4.45 2.55 4.44 2.60 4.44L2.72 4.44C2.90 4.42 3.00 4.34 3.00 4.19L3.00 3.92L1.53 3.92L0.94 3.92L0.34 3.92L0.34 4.19C0.34 4.34 0.43 4.42 0.62 4.44L0.71 4.44C0.76 4.44 0.80 4.45 0.87 4.45C0.94 4.45 1.02 4.47 1.11 4.47L4.06 13.82L4.69 13.82L7.63 5.22C7.67 5.11 7.70 5.00 7.73 4.87C7.76 5.00 7.78 5.11 7.83 5.22L10.75 13.82L11.40 13.82L14.34 4.47C14.42 4.47 14.49 4.45 14.56 4.45C14.63 4.45 14.69 4.44 14.73 4.44L14.83 4.44C15.01 4.42 15.09 4.34 15.09 4.19L15.09 3.92ZM32.87 4.44C33.05 4.42 33.15 4.34 33.15 4.19L33.15 3.92L31.98 3.92L31.25 3.92L30.07 3.92L30.07 4.19C30.07 4.34 30.17 4.42 30.35 4.44L30.48 4.44C30.55 4.44 30.66 4.45 30.80 4.45C30.94 4.45 31.08 4.47 31.25 4.47L31.25 8.53L25.05 8.53L25.05 4.47C25.21 4.47 25.37 4.45 25.51 4.45C25.65 4.45 25.75 4.44 25.82 4.44L25.96 4.44C26.14 4.42 26.22 4.34 26.22 4.19L26.22 3.92L25.05 3.92L24.33 3.92L23.14 3.92L23.14 4.19C23.14 4.34 23.24 4.42 23.42 4.44L23.56 4.44C23.63 4.44 23.73 4.45 23.87 4.45C24.01 4.45 24.16 4.47 24.33 4.47L24.33 13.26C24.16 13.26 24.01 13.27 23.87 13.27C23.73 13.27 23.63 13.29 23.56 13.29L23.42 13.29C23.24 13.30 23.14 13.38 23.14 13.54L23.14 13.82L24.33 13.82L25.05 13.82L26.22 13.82L26.22 13.54C26.22 13.38 26.14 13.30 25.96 13.29L25.82 13.29C25.75 13.29 25.65 13.27 25.51 13.27C25.37 13.27 25.21 13.26 25.05 13.26L25.05 9.07L31.25 9.07L31.25 13.26C31.08 13.26 30.94 13.27 30.80 13.27C30.66 13.27 30.55 13.29 30.48 13.29L30.35 13.29C30.17 13.30 30.07 13.38 30.07 13.54L30.07 13.82L31.25 13.82L31.98 13.82L33.15 13.82L33.15 13.54C33.15 13.38 33.05 13.30 32.87 13.29L32.75 13.29C32.68 13.29 32.56 13.27 32.42 13.27C32.28 13.27 32.14 13.26 31.98 13.26L31.98 4.47C32.14 4.47 32.28 4.45 32.42 4.45C32.56 4.45 32.68 4.44 32.75 4.44ZM42.69 3.92L41.50 3.92L41.50 4.19C41.50 4.34 41.59 4.42 41.78 4.44L41.92 4.44C41.99 4.44 42.08 4.45 42.22 4.45C42.36 4.45 42.52 4.47 42.69 4.47L42.69 13.26C42.52 13.26 42.36 13.27 42.22 13.27C42.08 13.27 41.99 13.29 41.92 13.29L41.78 13.29C41.59 13.30 41.51 13.38 41.51 13.54L41.51 13.82L42.69 13.82L48.62 13.82L48.62 13.22L48.62 11.76L48.27 11.76C48.08 11.76 47.99 11.89 47.98 12.11C47.98 12.14 47.96 12.19 47.96 12.29C47.96 12.39 47.96 12.53 47.95 12.74C47.94 12.95 47.92 13.09 47.92 13.22L43.40 13.22L43.40 9.09L47.35 9.09L47.35 8.51L43.40 8.51L43.40 4.51L47.92 4.51C47.95 5.12 47.98 5.50 47.98 5.63C47.99 5.85 48.08 5.96 48.27 5.96L48.62 5.96L48.62 4.51L48.62 3.92ZM65.20 13.29L65.10 13.29L64.92 13.29C64.83 13.29 64.75 13.27 64.67 13.27L61.70 9.53C61.61 9.42 61.50 9.32 61.39 9.25C61.82 9.21 62.22 9.11 62.57 8.96C62.92 8.81 63.20 8.61 63.45 8.37C63.69 8.13 63.88 7.85 64.01 7.55C64.13 7.24 64.20 6.89 64.20 6.51C64.20 5.66 63.92 5.03 63.36 4.58C62.80 4.14 61.95 3.92 60.80 3.92L58.39 3.92L57.22 3.92L57.22 4.19C57.22 4.34 57.30 4.42 57.48 4.44L57.62 4.44C57.69 4.44 57.79 4.45 57.93 4.45C58.07 4.45 58.23 4.47 58.39 4.47L58.39 13.26C58.23 13.26 58.07 13.27 57.93 13.27C57.79 13.27 57.69 13.29 57.62 13.29L57.48 13.29C57.30 13.30 57.20 13.38 57.20 13.54L57.20 13.82L58.39 13.82L59.11 13.82L60.28 13.82L60.28 13.54C60.28 13.38 60.19 13.30 60.00 13.29L59.86 13.29C59.79 13.29 59.70 13.27 59.56 13.27C59.42 13.27 59.28 13.26 59.11 13.26L59.11 9.34L60.28 9.34C60.48 9.34 60.62 9.35 60.70 9.39C60.79 9.44 60.87 9.52 60.96 9.62L64.13 13.64C64.19 13.71 64.23 13.75 64.29 13.78C64.34 13.80 64.41 13.82 64.48 13.82L64.55 13.82L65.10 13.82L65.46 13.82L65.46 13.54C65.46 13.38 65.38 13.30 65.20 13.29ZM60.70 8.81L59.11 8.81L59.11 4.48L60.80 4.48C61.68 4.48 62.36 4.66 62.82 5.00C63.28 5.33 63.50 5.87 63.50 6.57C63.50 6.92 63.45 7.21 63.32 7.49C63.20 7.77 63 7.99 62.76 8.19C62.52 8.39 62.23 8.55 61.88 8.65C61.53 8.75 61.14 8.81 60.70 8.81ZM74.86 3.92L73.67 3.92L73.67 4.19C73.67 4.34 73.77 4.42 73.95 4.44L74.09 4.44C74.16 4.44 74.26 4.45 74.40 4.45C74.54 4.45 74.69 4.47 74.86 4.47L74.86 13.26C74.69 13.26 74.54 13.27 74.40 13.27C74.26 13.27 74.16 13.29 74.09 13.29L73.95 13.29C73.77 13.30 73.68 13.38 73.68 13.54L73.68 13.82L74.86 13.82L80.79 13.82L80.79 13.22L80.79 11.76L80.44 11.76C80.25 11.76 80.16 11.89 80.15 12.11C80.15 12.14 80.14 12.19 80.14 12.29C80.14 12.39 80.14 12.53 80.12 12.74C80.11 12.95 80.09 13.09 80.09 13.22L75.57 13.22L75.57 9.09L79.52 9.09L79.52 8.51L75.57 8.51L75.57 4.51L80.09 4.51C80.12 5.12 80.15 5.50 80.15 5.63C80.16 5.85 80.25 5.96 80.44 5.96L80.79 5.96L80.79 4.51L80.79 3.92ZM106.12 11.97C105.92 11.97 105.84 12.08 105.83 12.31C105.83 12.32 105.83 12.38 105.81 12.43C105.80 12.49 105.80 12.59 105.78 12.71C105.77 12.84 105.76 13.01 105.74 13.20L101.65 13.20L101.65 4.47C101.82 4.47 101.96 4.45 102.10 4.45C102.24 4.45 102.35 4.44 102.42 4.44L102.55 4.44C102.73 4.42 102.83 4.34 102.83 4.19L102.83 3.92L101.65 3.92L100.94 3.92L99.75 3.92L99.75 4.19C99.75 4.34 99.85 4.42 100.03 4.44L100.17 4.44C100.24 4.44 100.34 4.45 100.48 4.45C100.62 4.45 100.77 4.47 100.94 4.47L100.94 13.26C100.77 13.26 100.62 13.27 100.48 13.27C100.34 13.27 100.24 13.29 100.17 13.29L100.03 13.29C99.85 13.30 99.75 13.38 99.75 13.54L99.75 13.82L100.94 13.82L106.22 13.82L106.34 13.82L106.47 13.82L106.47 13.55L106.47 12.99L106.47 11.97L106.19 11.97ZM116.09 3.92L114.90 3.92L114.90 4.19C114.90 4.34 115.00 4.42 115.18 4.44L115.32 4.44C115.39 4.44 115.49 4.45 115.63 4.45C115.77 4.45 115.92 4.47 116.09 4.47L116.09 13.26C115.92 13.26 115.77 13.27 115.63 13.27C115.49 13.27 115.39 13.29 115.32 13.29L115.18 13.29C115.00 13.30 114.91 13.38 114.91 13.54L114.91 13.82L116.09 13.82L122.02 13.82L122.02 13.22L122.02 11.76L121.67 11.76C121.48 11.76 121.39 11.89 121.38 12.11C121.38 12.14 121.37 12.19 121.37 12.29C121.37 12.39 121.37 12.53 121.35 12.74C121.34 12.95 121.32 13.09 121.32 13.22L116.80 13.22L116.80 9.09L120.75 9.09L120.75 8.51L116.80 8.51L116.80 4.51L121.32 4.51C121.35 5.12 121.38 5.50 121.38 5.63C121.39 5.85 121.48 5.96 121.67 5.96L122.02 5.96L122.02 4.51L122.02 3.92ZM139.90 13.22L139.44 13.17L135.66 3.91L134.95 3.91L131.15 13.17L130.70 13.22C130.52 13.23 130.44 13.33 130.44 13.50L130.44 13.82L130.89 13.82L131.18 13.82L131.43 13.82L131.53 13.82L132.85 13.82L132.85 13.50C132.85 13.31 132.73 13.23 132.52 13.22C132.51 13.22 132.48 13.20 132.44 13.20C132.40 13.20 132.34 13.19 132.24 13.19C132.15 13.19 132.02 13.19 131.88 13.17L132.86 10.75L132.93 10.57L137.66 10.57L137.73 10.75L138.71 13.17C138.57 13.19 138.46 13.19 138.36 13.19C138.26 13.19 138.19 13.20 138.15 13.20C138.11 13.20 138.08 13.22 138.07 13.22C137.86 13.23 137.75 13.31 137.75 13.50L137.75 13.82L139.06 13.82L139.16 13.82L139.43 13.82L139.71 13.82L140.17 13.82L140.17 13.50C140.17 13.33 140.08 13.23 139.90 13.22ZM135.10 5.22C135.13 5.14 135.17 5.04 135.20 4.94C135.23 4.84 135.27 4.75 135.30 4.63C135.32 4.75 135.37 4.84 135.39 4.94C135.42 5.04 135.46 5.12 135.49 5.21L137.45 10.04L133.15 10.04ZM156.39 13.29L156.30 13.29L156.11 13.29C156.03 13.29 155.95 13.27 155.86 13.27L152.89 9.53C152.81 9.42 152.70 9.32 152.59 9.25C153.02 9.21 153.41 9.11 153.76 8.96C154.11 8.81 154.39 8.61 154.64 8.37C154.88 8.13 155.08 7.85 155.20 7.55C155.33 7.24 155.40 6.89 155.40 6.51C155.40 5.66 155.12 5.03 154.56 4.58C154.00 4.14 153.15 3.92 152.00 3.92L149.59 3.92L148.41 3.92L148.41 4.19C148.41 4.34 148.50 4.42 148.68 4.44L148.82 4.44C148.89 4.44 148.99 4.45 149.13 4.45C149.27 4.45 149.42 4.47 149.59 4.47L149.59 13.26C149.42 13.26 149.27 13.27 149.13 13.27C148.99 13.27 148.89 13.29 148.82 13.29L148.68 13.29C148.50 13.30 148.40 13.38 148.40 13.54L148.40 13.82L149.59 13.82L150.30 13.82L151.48 13.82L151.48 13.54C151.48 13.38 151.38 13.30 151.20 13.29L151.06 13.29C150.99 13.29 150.89 13.27 150.75 13.27C150.61 13.27 150.47 13.26 150.30 13.26L150.30 9.34L151.48 9.34C151.68 9.34 151.82 9.35 151.90 9.39C151.98 9.44 152.07 9.52 152.15 9.62L155.33 13.64C155.39 13.71 155.43 13.75 155.48 13.78C155.54 13.80 155.61 13.82 155.68 13.82L155.75 13.82L156.30 13.82L156.66 13.82L156.66 13.54C156.66 13.38 156.58 13.30 156.39 13.29ZM151.90 8.81L150.30 8.81L150.30 4.48L152.00 4.48C152.88 4.48 153.55 4.66 154.01 5.00C154.48 5.33 154.70 5.87 154.70 6.57C154.70 6.92 154.64 7.21 154.52 7.49C154.39 7.77 154.20 7.99 153.96 8.19C153.72 8.39 153.43 8.55 153.08 8.65C152.73 8.75 152.33 8.81 151.90 8.81ZM173.70 3.92L173.07 3.92L171.85 3.92L171.85 4.19C171.85 4.34 171.95 4.42 172.13 4.44L172.27 4.44C172.34 4.44 172.45 4.45 172.59 4.45C172.73 4.45 172.90 4.47 173.07 4.47L173.07 12.22C173.07 12.35 173.07 12.49 173.08 12.63L166.67 4.05C166.63 3.99 166.60 3.95 166.56 3.93C166.52 3.92 166.47 3.91 166.40 3.91L166.05 3.91L164.86 3.91L164.86 4.19C164.86 4.34 164.96 4.42 165.14 4.44L165.28 4.44C165.35 4.44 165.45 4.45 165.59 4.45C165.73 4.45 165.89 4.47 166.05 4.47L166.05 13.26C165.89 13.26 165.73 13.27 165.59 13.27C165.45 13.27 165.35 13.29 165.28 13.29L165.14 13.29C164.96 13.30 164.86 13.38 164.86 13.54L164.86 13.82L166.05 13.82L166.67 13.82L167.89 13.82L167.89 13.54C167.89 13.38 167.79 13.30 167.61 13.29L167.47 13.29C167.40 13.29 167.27 13.27 167.13 13.27C166.99 13.27 166.84 13.26 166.67 13.26L166.67 5.49C166.67 5.36 166.67 5.22 166.66 5.08L173.10 13.68C173.17 13.78 173.24 13.82 173.35 13.82L173.70 13.82L173.70 4.47C173.87 4.47 174.01 4.45 174.15 4.45C174.29 4.45 174.40 4.44 174.47 4.44L174.59 4.44C174.78 4.42 174.87 4.34 174.87 4.19L174.87 3.92ZM185.72 4.44C185.91 4.42 185.99 4.34 185.99 4.19L185.99 3.91L184.81 3.91L184.10 3.91L182.91 3.91L182.91 4.19C182.91 4.34 183.01 4.42 183.19 4.44L183.33 4.44C183.40 4.44 183.50 4.45 183.64 4.45C183.78 4.45 183.93 4.47 184.10 4.47L184.10 13.26C183.93 13.26 183.78 13.27 183.64 13.27C183.50 13.27 183.40 13.29 183.33 13.29L183.19 13.29C183.01 13.30 182.91 13.38 182.91 13.54L182.91 13.82L184.10 13.82L184.81 13.82L185.99 13.82L185.99 13.54C185.99 13.38 185.91 13.30 185.72 13.29L185.58 13.29C185.51 13.29 185.42 13.27 185.28 13.27C185.14 13.27 184.98 13.26 184.81 13.26L184.81 4.47C184.98 4.47 185.14 4.45 185.28 4.45C185.42 4.45 185.51 4.44 185.58 4.44ZM203.17 3.92L202.54 3.92L201.32 3.92L201.32 4.19C201.32 4.34 201.42 4.42 201.60 4.44L201.74 4.44C201.81 4.44 201.92 4.45 202.06 4.45C202.20 4.45 202.37 4.47 202.54 4.47L202.54 12.22C202.54 12.35 202.54 12.49 202.55 12.63L196.14 4.05C196.10 3.99 196.07 3.95 196.03 3.93C195.99 3.92 195.94 3.91 195.87 3.91L195.52 3.91L194.33 3.91L194.33 4.19C194.33 4.34 194.43 4.42 194.61 4.44L194.75 4.44C194.82 4.44 194.92 4.45 195.06 4.45C195.20 4.45 195.36 4.47 195.52 4.47L195.52 13.26C195.36 13.26 195.20 13.27 195.06 13.27C194.92 13.27 194.82 13.29 194.75 13.29L194.61 13.29C194.43 13.30 194.33 13.38 194.33 13.54L194.33 13.82L195.52 13.82L196.14 13.82L197.36 13.82L197.36 13.54C197.36 13.38 197.26 13.30 197.08 13.29L196.94 13.29C196.87 13.29 196.74 13.27 196.60 13.27C196.46 13.27 196.31 13.26 196.14 13.26L196.14 5.49C196.14 5.36 196.14 5.22 196.13 5.08L202.57 13.68C202.64 13.78 202.71 13.82 202.82 13.82L203.17 13.82L203.17 4.47C203.34 4.47 203.48 4.45 203.62 4.45C203.76 4.45 203.87 4.44 203.94 4.44L204.06 4.44C204.25 4.42 204.34 4.34 204.34 4.19L204.34 3.92ZM218.02 9.32L218.02 9.72C218.02 9.76 218.05 9.80 218.08 9.83C218.11 9.86 218.15 9.87 218.20 9.87L220.11 9.87L220.11 12.54C219.88 12.67 219.66 12.78 219.45 12.88C219.24 12.98 219.00 13.08 218.76 13.15C218.53 13.22 218.26 13.27 217.98 13.30C217.70 13.33 217.39 13.34 217.06 13.34C216.44 13.34 215.88 13.24 215.38 13.03C214.87 12.82 214.44 12.53 214.07 12.15C213.71 11.77 213.43 11.30 213.23 10.74C213.04 10.18 212.93 9.56 212.93 8.86C212.93 8.18 213.04 7.56 213.23 7.01C213.43 6.47 213.71 5.99 214.07 5.61C214.44 5.24 214.89 4.94 215.40 4.73C215.92 4.52 216.50 4.42 217.14 4.42C218.32 4.42 219.25 4.58 219.94 4.90C219.98 5.81 220.01 6.31 220.01 6.41C220.02 6.64 220.12 6.75 220.32 6.75L220.65 6.75L220.65 4.51C220.22 4.31 219.66 4.14 218.96 4.00C218.26 3.86 217.67 3.81 217.17 3.81C216.41 3.81 215.73 3.92 215.11 4.16C214.49 4.40 213.98 4.75 213.54 5.18C213.11 5.61 212.79 6.15 212.55 6.78C212.31 7.39 212.20 8.09 212.20 8.86C212.20 9.63 212.31 10.32 212.55 10.95C212.79 11.58 213.11 12.10 213.53 12.54C213.95 12.99 214.47 13.33 215.05 13.57C215.64 13.80 216.29 13.93 217 13.93C217.42 13.93 217.80 13.90 218.15 13.86C218.50 13.80 218.82 13.73 219.13 13.65C219.44 13.55 219.72 13.44 219.98 13.30C220.25 13.16 220.50 13.01 220.75 12.84L220.75 9.32ZM242.34 4.44C242.52 4.42 242.61 4.34 242.61 4.19L242.61 3.91L241.43 3.91L240.72 3.91L239.53 3.91L239.53 4.19C239.53 4.34 239.62 4.42 239.81 4.44L239.95 4.44C240.02 4.44 240.11 4.45 240.25 4.45C240.39 4.45 240.55 4.47 240.72 4.47L240.72 13.26C240.55 13.26 240.39 13.27 240.25 13.27C240.11 13.27 240.02 13.29 239.95 13.29L239.81 13.29C239.62 13.30 239.53 13.38 239.53 13.54L239.53 13.82L240.72 13.82L241.43 13.82L242.61 13.82L242.61 13.54C242.61 13.38 242.52 13.30 242.34 13.29L242.20 13.29C242.13 13.29 242.03 13.27 241.89 13.27C241.75 13.27 241.60 13.26 241.43 13.26L241.43 4.47C241.60 4.47 241.75 4.45 241.89 4.45C242.03 4.45 242.13 4.44 242.20 4.44ZM256.68 9.91C256.54 9.65 256.34 9.39 256.10 9.21C255.86 9.03 255.61 8.88 255.32 8.75C255.02 8.62 254.70 8.51 254.39 8.41C254.09 8.32 253.78 8.20 253.48 8.11C253.19 7.99 252.92 7.87 252.69 7.71C252.45 7.56 252.27 7.38 252.13 7.15C251.99 6.93 251.90 6.65 251.90 6.31C251.90 6.06 251.96 5.82 252.06 5.59C252.15 5.35 252.29 5.15 252.48 4.97C252.66 4.79 252.88 4.65 253.16 4.55C253.44 4.45 253.75 4.40 254.11 4.40C254.79 4.40 255.40 4.51 255.96 4.75C256.00 5.54 256.03 5.99 256.03 6.06C256.05 6.29 256.13 6.41 256.33 6.41L256.66 6.41L256.66 4.38C255.78 4.00 254.94 3.81 254.11 3.81C253.65 3.81 253.25 3.88 252.88 4.02C252.52 4.16 252.22 4.34 251.99 4.58C251.75 4.82 251.55 5.08 251.43 5.39C251.30 5.70 251.24 6.02 251.24 6.36C251.24 6.78 251.31 7.14 251.45 7.42C251.59 7.70 251.79 7.92 252.03 8.12C252.27 8.32 252.52 8.46 252.81 8.58C253.11 8.71 253.43 8.82 253.74 8.92C254.04 9.02 254.34 9.11 254.65 9.21C254.94 9.31 255.21 9.45 255.44 9.60C255.68 9.76 255.86 9.94 256.00 10.16C256.14 10.39 256.21 10.68 256.21 11.03C256.21 11.35 256.16 11.66 256.05 11.94C255.93 12.22 255.78 12.46 255.57 12.67C255.36 12.88 255.09 13.05 254.79 13.16C254.48 13.29 254.13 13.33 253.74 13.33C252.95 13.33 252.29 13.20 251.76 12.95C251.75 12.75 251.75 12.54 251.73 12.32C251.72 12.10 251.72 11.91 251.71 11.76C251.69 11.61 251.69 11.52 251.69 11.51C251.68 11.28 251.58 11.17 251.38 11.17L251.05 11.17L251.05 13.02L251.05 13.20L251.05 13.38C251.90 13.75 252.78 13.93 253.71 13.93C254.21 13.93 254.66 13.85 255.05 13.69C255.44 13.54 255.78 13.31 256.05 13.05C256.31 12.78 256.54 12.46 256.68 12.10C256.82 11.73 256.89 11.34 256.89 10.92C256.89 10.51 256.82 10.18 256.68 9.91ZM282.65 3.92L282.30 3.92L276.71 3.92L275.52 3.92L275.52 4.19C275.52 4.34 275.62 4.42 275.80 4.44L275.94 4.44C276.01 4.44 276.11 4.45 276.25 4.45C276.39 4.45 276.54 4.47 276.71 4.47L276.71 13.26C276.54 13.26 276.39 13.27 276.25 13.27C276.11 13.27 276.01 13.29 275.94 13.29L275.80 13.29C275.62 13.30 275.52 13.38 275.52 13.54L275.52 13.82L276.71 13.82L277.42 13.82L278.60 13.82L278.60 13.54C278.60 13.38 278.52 13.30 278.33 13.29L278.19 13.29C278.12 13.29 278.03 13.27 277.89 13.27C277.75 13.27 277.59 13.26 277.42 13.26L277.42 9.27L281.12 9.27L281.12 8.67L277.42 8.67L277.42 4.51L282.03 4.51C282.06 5.18 282.09 5.56 282.09 5.63C282.10 5.85 282.20 5.96 282.39 5.96L282.73 5.96L282.73 3.92ZM299.17 3.92L298.45 3.92L297.09 3.92L297.09 4.19C297.09 4.34 297.19 4.42 297.37 4.44L297.54 4.44C297.64 4.44 297.78 4.45 297.95 4.45C298.12 4.45 298.28 4.47 298.45 4.47L298.45 10.04C298.45 10.50 298.38 10.92 298.24 11.33C298.10 11.73 297.91 12.08 297.64 12.38C297.37 12.67 297.07 12.89 296.69 13.06C296.31 13.23 295.89 13.31 295.41 13.31C294.94 13.31 294.50 13.23 294.13 13.06C293.75 12.89 293.43 12.66 293.17 12.36C292.91 12.07 292.73 11.72 292.59 11.33C292.45 10.93 292.38 10.50 292.38 10.04L292.38 4.47C292.54 4.47 292.71 4.45 292.88 4.45C293.05 4.45 293.19 4.44 293.29 4.44L293.45 4.44C293.64 4.42 293.73 4.34 293.73 4.19L293.73 3.92L292.38 3.92L291.66 3.92L290.49 3.92L290.49 4.19C290.49 4.34 290.57 4.42 290.75 4.44L290.89 4.44C290.96 4.44 291.06 4.45 291.20 4.45C291.34 4.45 291.49 4.47 291.66 4.47L291.66 10.04C291.66 10.58 291.75 11.09 291.91 11.56C292.08 12.04 292.33 12.46 292.66 12.81C292.98 13.16 293.38 13.44 293.85 13.64C294.31 13.83 294.84 13.93 295.41 13.93C295.99 13.93 296.51 13.83 296.97 13.64C297.43 13.44 297.84 13.16 298.16 12.81C298.48 12.46 298.73 12.04 298.90 11.56C299.07 11.09 299.17 10.58 299.17 10.04L299.17 4.47C299.33 4.47 299.47 4.45 299.61 4.45C299.75 4.45 299.87 4.44 299.94 4.44L300.06 4.44C300.24 4.42 300.34 4.34 300.34 4.19L300.34 3.92ZM317.20 3.92L316.57 3.92L315.35 3.92L315.35 4.19C315.35 4.34 315.45 4.42 315.63 4.44L315.77 4.44C315.84 4.44 315.95 4.45 316.09 4.45C316.23 4.45 316.40 4.47 316.57 4.47L316.57 12.22C316.57 12.35 316.57 12.49 316.58 12.63L310.17 4.05C310.13 3.99 310.10 3.95 310.06 3.93C310.02 3.92 309.97 3.91 309.90 3.91L309.55 3.91L308.36 3.91L308.36 4.19C308.36 4.34 308.46 4.42 308.64 4.44L308.78 4.44C308.85 4.44 308.95 4.45 309.09 4.45C309.23 4.45 309.39 4.47 309.55 4.47L309.55 13.26C309.39 13.26 309.23 13.27 309.09 13.27C308.95 13.27 308.85 13.29 308.78 13.29L308.64 13.29C308.46 13.30 308.36 13.38 308.36 13.54L308.36 13.82L309.55 13.82L310.17 13.82L311.39 13.82L311.39 13.54C311.39 13.38 311.29 13.30 311.11 13.29L310.97 13.29C310.90 13.29 310.77 13.27 310.63 13.27C310.49 13.27 310.34 13.26 310.17 13.26L310.17 5.49C310.17 5.36 310.17 5.22 310.16 5.08L316.60 13.68C316.67 13.78 316.74 13.82 316.85 13.82L317.20 13.82L317.20 4.47C317.37 4.47 317.51 4.45 317.65 4.45C317.79 4.45 317.90 4.44 317.97 4.44L318.09 4.44C318.28 4.42 318.37 4.34 318.37 4.19L318.37 3.92Z"></path></g></svg>