<svg data-v-423bf9ae="" xmlns="http://www.w3.org/2000/svg" viewBox="0 0 329.0846194819657 60" class="font"><!----><!----><!----><g data-v-423bf9ae="" id="5aa47004-a5a6-4cac-a693-8962465cbaf0" fill="black" transform="matrix(4.160887634018687,0,0,4.160887634018687,-1.7475719615959804,-16.061026346013406)"><path d="M4.49 13.83L4.49 13.83L4.49 13.83Q4.49 14.66 2.88 14.66L2.88 14.66L2.88 14.66Q2.53 14.66 2.47 14.30L2.47 14.30L2.47 14.30Q2.41 13.94 2.41 13.41L2.41 13.41L2.41 13.41Q2.41 12.88 2.48 12.27L2.48 12.27L2.48 12.27Q2.56 11.66 2.69 10.95L2.69 10.95L2.69 10.95Q2.93 9.58 3.37 7.99L3.37 7.99L3.37 7.99Q3.81 6.40 4.24 5.53L4.24 5.53L4.24 5.53Q3.36 5.59 2.49 5.85L2.49 5.85L2.49 5.85Q1.62 6.10 1.26 6.21L1.26 6.21L1.26 6.21Q0.90 6.31 0.66 6.31L0.66 6.31L0.66 6.31Q0.42 6.31 0.42 6.16L0.42 6.16L0.42 6.16Q0.42 5.98 0.70 5.62L0.70 5.62L0.70 5.62Q0.98 5.26 1.50 4.90L1.50 4.90L1.50 4.90Q2.81 4.00 4.42 3.99L4.42 3.99L9.03 4.03L9.03 4.03Q9.41 4.03 9.41 4.33L9.41 4.33L9.41 4.33Q9.41 4.41 9.30 4.63L9.30 4.63L9.30 4.63Q9.18 4.84 9.10 5.10L9.10 5.10L9.10 5.10Q8.92 5.60 8.34 5.60L8.34 5.60L8.34 5.60Q7.76 5.60 5.57 5.52L5.57 5.52L5.57 5.52Q5.52 6.13 5.35 7.09L5.35 7.09L5.35 7.09Q5.18 8.05 4.98 9.18L4.98 9.18L4.98 9.18Q4.51 12.08 4.49 13.83ZM12.81 9.74L12.81 9.74L12.81 9.74Q12.81 9.24 12.21 9.24L12.21 9.24L12.21 9.24Q11.62 9.24 11.05 10.16L11.05 10.16L11.05 10.16Q10.47 11.07 10.33 12.03L10.33 12.03L10.33 12.03Q10.36 12.35 10.39 12.67L10.39 12.67L10.39 12.67Q10.42 12.99 10.42 13.30L10.42 13.30L10.42 13.30Q10.42 14.04 9.93 14.31L9.93 14.31L9.93 14.31Q9.70 14.43 9.50 14.55L9.50 14.55L9.50 14.55Q9.30 14.66 9.03 14.66L9.03 14.66L9.03 14.66Q8.76 14.66 8.56 14.30L8.56 14.30L8.56 14.30Q8.36 13.94 8.36 13.19L8.36 13.19L8.36 13.19Q8.36 11.07 8.67 9.52L8.67 9.52L8.67 9.52Q9.14 7.11 10.56 4.37L10.56 4.37L10.56 4.37Q10.75 3.99 11.13 4.00L11.13 4.00L11.13 4.00Q11.51 4.00 11.75 4.52L11.75 4.52L11.75 4.52Q11.98 5.04 11.98 5.39L11.98 5.39L11.98 5.39Q11.97 5.74 11.87 6.07L11.87 6.07L11.87 6.07Q11.76 6.40 11.60 6.71L11.60 6.71L11.60 6.71Q11.44 7.03 11.23 7.36L11.23 7.36L11.23 7.36Q11.03 7.69 10.84 8.06L10.84 8.06L10.63 9.07L10.63 9.07Q11.17 8.16 12.10 7.85L12.10 7.85L12.10 7.85Q12.43 7.74 12.84 7.74L12.84 7.74L12.84 7.74Q13.79 7.74 14.28 8.17L14.28 8.17L14.28 8.17Q14.77 8.60 14.77 9.37L14.77 9.37L14.77 9.37Q14.77 10.15 14.57 10.95L14.57 10.95L14.57 10.95Q14.36 11.75 14.27 12.09L14.27 12.09L14.27 12.09Q14.18 12.43 14.18 12.66L14.18 12.66L14.18 12.66Q14.18 12.88 14.34 12.88L14.34 12.88L14.34 12.88Q14.55 12.88 14.85 12.61L14.85 12.61L14.85 12.61Q15.16 12.35 15.47 12.03L15.47 12.03L15.47 12.03Q15.78 11.72 16.04 11.45L16.04 11.45L16.04 11.45Q16.30 11.19 16.39 11.19L16.39 11.19L16.39 11.19Q16.59 11.19 16.59 11.66L16.59 11.66L16.59 11.66Q16.59 12.64 15.62 13.55L15.62 13.55L15.62 13.55Q14 14.50 13.55 14.50L13.55 14.50L13.55 14.50Q13.51 14.50 13.50 14.49L13.50 14.49L13.50 14.49Q12.38 14.49 12.38 12.70L12.38 12.70L12.38 12.70Q12.38 11.93 12.52 11.28L12.52 11.28L12.52 11.28Q12.67 10.64 12.74 10.35L12.74 10.35L12.74 10.35Q12.81 10.05 12.81 9.74ZM19.15 12.92L19.15 12.92L19.15 12.92Q20.24 12.92 21.27 12.05L21.27 12.05L21.27 12.05Q21.64 11.73 21.88 11.46L21.88 11.46L21.88 11.46Q22.12 11.19 22.25 11.19L22.25 11.19L22.25 11.19Q22.44 11.19 22.44 11.58L22.44 11.58L22.44 11.58Q22.44 11.97 22.23 12.45L22.23 12.45L22.23 12.45Q22.02 12.94 21.53 13.40L21.53 13.40L21.53 13.40Q20.33 14.53 18.23 14.53L18.23 14.53L18.23 14.53Q16.56 14.53 15.96 13.33L15.96 13.33L15.96 13.33Q15.75 12.91 15.75 12.12L15.75 12.12L15.75 12.12Q15.75 11.34 16.06 10.49L16.06 10.49L16.06 10.49Q16.37 9.65 16.88 9.03L16.88 9.03L16.88 9.03Q17.39 8.41 18.06 8.07L18.06 8.07L18.06 8.07Q18.73 7.73 19.49 7.73L19.49 7.73L19.49 7.73Q20.26 7.73 20.67 8.11L20.67 8.11L20.67 8.11Q21.08 8.48 21.08 9.09L21.08 9.09L21.08 9.09Q21.08 9.69 20.78 10.07L20.78 10.07L20.78 10.07Q20.48 10.46 20.01 10.72L20.01 10.72L20.01 10.72Q19.53 10.98 18.95 11.18L18.95 11.18L18.95 11.18Q18.37 11.38 17.81 11.63L17.81 11.63L17.81 11.98L17.81 11.98Q17.82 12.49 18.23 12.70L18.23 12.70L18.23 12.70Q18.63 12.91 19.15 12.92ZM18.91 8.97L18.91 8.97L18.91 8.97Q18.19 8.97 17.91 10.67L17.91 10.67L17.91 10.67Q18.20 10.47 18.46 10.32L18.46 10.32L18.46 10.32Q18.72 10.16 18.91 10.02L18.91 10.02L18.91 10.02Q19.33 9.72 19.35 9.32L19.35 9.32L19.35 9.32Q19.35 8.97 18.91 8.97ZM31.42 13.83L31.42 13.83L31.42 13.83Q31.42 14.66 29.81 14.66L29.81 14.66L29.81 14.66Q29.46 14.66 29.39 14.30L29.39 14.30L29.39 14.30Q29.33 13.94 29.33 13.41L29.33 13.41L29.33 13.41Q29.33 12.88 29.41 12.27L29.41 12.27L29.41 12.27Q29.48 11.66 29.61 10.95L29.61 10.95L29.61 10.95Q29.85 9.58 30.29 7.99L30.29 7.99L30.29 7.99Q30.73 6.40 31.16 5.53L31.16 5.53L31.16 5.53Q30.28 5.59 29.41 5.85L29.41 5.85L29.41 5.85Q28.55 6.10 28.18 6.21L28.18 6.21L28.18 6.21Q27.82 6.31 27.58 6.31L27.58 6.31L27.58 6.31Q27.34 6.31 27.34 6.16L27.34 6.16L27.34 6.16Q27.34 5.98 27.62 5.62L27.62 5.62L27.62 5.62Q27.90 5.26 28.42 4.90L28.42 4.90L28.42 4.90Q29.74 4.00 31.35 3.99L31.35 3.99L35.95 4.03L35.95 4.03Q36.33 4.03 36.33 4.33L36.33 4.33L36.33 4.33Q36.33 4.41 36.22 4.63L36.22 4.63L36.22 4.63Q36.11 4.84 36.02 5.10L36.02 5.10L36.02 5.10Q35.84 5.60 35.26 5.60L35.26 5.60L35.26 5.60Q34.68 5.60 32.49 5.52L32.49 5.52L32.49 5.52Q32.44 6.13 32.27 7.09L32.27 7.09L32.27 7.09Q32.10 8.05 31.91 9.18L31.91 9.18L31.91 9.18Q31.43 12.08 31.42 13.83ZM40.03 13.26L40.03 13.26L40.03 13.26Q38.92 14.56 37.37 14.56L37.37 14.56L37.37 14.56Q35.83 14.56 35.06 13.77L35.06 13.77L35.06 13.77Q34.29 12.98 34.30 11.80L34.30 11.80L34.30 11.80Q34.29 10.14 35.35 8.93L35.35 8.93L35.35 8.93Q36.41 7.73 38.14 7.73L38.14 7.73L38.14 7.73Q38.92 7.73 39.40 7.92L39.40 7.92L39.40 7.92Q40.22 8.26 40.22 8.55L40.22 8.55L40.22 8.55Q40.22 8.78 39.07 8.79L39.07 8.79L39.07 8.79Q37.91 8.79 37.13 9.58L37.13 9.58L37.13 9.58Q36.36 10.37 36.36 11.58L36.36 11.58L36.36 11.58Q36.36 12.21 36.73 12.63L36.73 12.63L36.73 12.63Q37.10 13.06 37.78 13.06L37.78 13.06L37.78 13.06Q38.46 13.06 38.91 12.78L38.91 12.78L38.91 12.78Q37.91 12.11 37.91 10.84L37.91 10.84L37.91 10.84Q37.90 10.16 38.39 9.61L38.39 9.61L38.39 9.61Q38.89 9.06 39.67 9.05L39.67 9.05L39.67 9.05Q40.45 9.04 40.78 9.48L40.78 9.48L40.78 9.48Q41.12 9.91 41.12 10.59L41.12 10.59L41.12 10.59Q41.12 11.27 40.80 12.03L40.80 12.03L40.88 12.03L40.88 12.03Q41.50 12.01 41.94 11.59L41.94 11.59L41.94 11.59Q42.11 11.42 42.23 11.30L42.23 11.30L42.23 11.30Q42.35 11.17 42.48 11.17L42.48 11.17L42.48 11.17Q42.67 11.17 42.67 11.63L42.67 11.63L42.67 11.63Q42.67 12.49 42.17 12.92L42.17 12.92L42.17 12.92Q41.66 13.34 41.05 13.34L41.05 13.34L41.05 13.34Q40.45 13.34 40.03 13.26ZM39.90 11.63L39.90 11.63L39.90 11.63Q40.14 11.13 40.14 10.65L40.14 10.65L40.14 10.65Q40.14 10.18 39.83 10.18L39.83 10.18L39.83 10.18Q39.70 10.18 39.62 10.36L39.62 10.36L39.62 10.36Q39.54 10.54 39.54 10.71L39.54 10.71L39.54 10.71Q39.54 11.27 39.90 11.63ZM45.74 13.43L45.74 13.43L45.74 13.43Q45.04 14.39 43.86 14.39L43.86 14.39L43.86 14.39Q42.91 14.39 42.34 13.99L42.34 13.99L42.34 13.99Q41.78 13.59 41.78 12.73L41.78 12.73L41.78 12.73Q41.78 12.36 41.88 12.05L41.88 12.05L41.88 12.05Q41.99 11.75 42.22 11.30L42.22 11.30L42.63 7.98L42.63 7.98Q43.06 7.64 43.81 7.64L43.81 7.64L43.81 7.64Q44.44 7.64 44.52 8.48L44.52 8.48L44.52 8.48Q44.55 8.74 44.55 9.08L44.55 9.08L44.55 9.08Q44.55 9.42 44.44 9.80L44.44 9.80L44.44 9.80Q43.88 11.73 43.89 12.39L43.89 12.39L43.89 12.39Q43.89 12.89 44.48 12.89L44.48 12.89L44.48 12.89Q45.07 12.89 45.35 12.52L45.35 12.52L45.35 12.52Q45.63 12.14 45.82 11.58L45.82 11.58L45.82 11.58Q46.19 10.02 46.50 9.02L46.50 9.02L46.50 9.02Q46.82 8.01 46.90 7.81L46.90 7.81L46.90 7.81Q47.04 7.48 47.43 7.46L47.43 7.46L47.43 7.46Q47.82 7.48 48.17 8.02L48.17 8.02L48.17 8.02Q48.52 8.55 48.52 8.85L48.52 8.85L48.52 8.85Q48.50 9.83 47.31 13.79L47.31 13.79L47.31 13.79Q48.22 13.08 49.11 12.04L49.11 12.04L49.11 12.04Q49.42 11.68 49.63 11.43L49.63 11.43L49.63 11.43Q49.84 11.19 49.97 11.19L49.97 11.19L49.97 11.19Q50.16 11.19 50.16 11.63L50.16 11.63L50.16 11.63Q50.16 12.52 49.17 13.69L49.17 13.69L49.17 13.69Q48.19 14.87 46.76 15.53L46.76 15.53L46.76 15.53Q46.59 16.09 46.40 16.59L46.40 16.59L46.40 16.59Q46.20 17.09 45.89 17.47L45.89 17.47L45.89 17.47Q45.22 18.28 43.85 18.28L43.85 18.28L43.85 18.28Q42.92 18.28 42.27 17.75L42.27 17.75L42.27 17.75Q41.62 17.22 41.62 16.42L41.62 16.42L41.62 16.42Q41.62 15.97 41.92 15.71L41.92 15.71L41.92 15.71Q42.22 15.44 42.75 15.27L42.75 15.27L42.75 15.27Q43.27 15.09 43.97 14.96L43.97 14.96L43.97 14.96Q44.67 14.83 45.47 14.63L45.47 14.63L45.47 14.63Q45.67 13.79 45.74 13.43ZM43.83 17.21L43.83 17.21L43.83 17.21Q44.49 17.21 45.02 16.06L45.02 16.06L45.02 16.06Q44.52 16.16 44.13 16.21L44.13 16.21L44.13 16.21Q43.74 16.25 43.46 16.30L43.46 16.30L43.46 16.30Q42.90 16.38 42.91 16.59L42.91 16.59L42.91 16.59Q42.91 16.86 43.22 17.04L43.22 17.04L43.22 17.04Q43.54 17.22 43.83 17.21ZM63.80 11.14L63.80 11.14L63.80 11.14Q64.01 11.14 64.01 11.62L64.01 11.62L64.01 11.62Q64.01 12.61 63.08 13.54L63.08 13.54L63.08 13.54Q62.16 14.48 60.83 14.49L60.83 14.49L60.83 14.49Q59.89 14.49 58.66 13.75L58.66 13.75L58.66 13.75Q57.78 14.69 56.46 14.69L56.46 14.69L56.46 14.69Q55.59 14.69 55.19 14.25L55.19 14.25L55.19 14.25Q54.78 13.82 54.78 13.10L54.78 13.10L54.78 13.10Q54.78 12.39 55.31 12.03L55.31 12.03L55.31 12.03Q55.83 11.68 56.64 11.68L56.64 11.68L56.64 11.68Q57.08 11.68 57.46 11.72L57.46 11.72L57.46 11.72Q57.46 10.01 57.83 8.39L57.83 8.39L57.83 8.39Q57.37 8.15 57.04 7.85L57.04 7.85L57.04 7.85Q56.71 7.56 56.71 7.39L56.71 7.39L56.71 7.39Q56.71 6.94 56.91 6.94L56.91 6.94L56.91 6.94Q57.19 6.94 57.49 7.11L57.49 7.11L57.49 7.11Q57.79 7.27 58.14 7.35L58.14 7.35L58.14 7.35Q59.01 4.84 60.52 4.12L60.52 4.12L60.52 4.12Q61.05 3.86 61.64 3.86L61.64 3.86L61.64 3.86Q63.85 3.86 63.85 5.73L63.85 5.73L63.85 5.73Q63.85 6.79 63.06 7.56L63.06 7.56L63.06 7.56Q61.95 8.62 59.70 8.68L59.70 8.68L59.70 8.68Q59.54 9.86 59.54 11.47L59.54 11.47L59.54 11.47Q59.54 11.86 59.44 12.35L59.44 12.35L59.44 12.35Q59.93 12.60 60.40 12.81L60.40 12.81L60.40 12.81Q60.86 13.02 61.53 13.02L61.53 13.02L61.53 13.02Q61.88 13.02 62.22 12.73L62.22 12.73L62.22 12.73Q62.57 12.43 62.87 12.08L62.87 12.08L62.87 12.08Q63.17 11.73 63.41 11.44L63.41 11.44L63.41 11.44Q63.64 11.14 63.80 11.14ZM61.61 5.24L61.61 5.24L61.61 5.24Q60.44 5.24 59.91 7.48L59.91 7.48L59.91 7.48Q60.91 7.39 61.61 6.91L61.61 6.91L61.61 6.91Q62.30 6.43 62.30 5.94L62.30 5.94L62.30 5.94Q62.30 5.24 61.61 5.24ZM56.14 13.20L56.14 13.20L56.14 13.20Q56.15 13.59 56.69 13.59L56.69 13.59L56.69 13.59Q57.22 13.59 57.36 12.98L57.36 12.98L57.36 12.98Q56.97 12.78 56.71 12.78L56.71 12.78L56.71 12.78Q56.15 12.78 56.14 13.20ZM71.95 11.14L71.95 11.14L71.95 11.14Q72.20 11.14 72.20 11.79L72.20 11.79L72.20 11.79Q72.20 12.14 71.90 12.63L71.90 12.63L71.90 12.63Q71.61 13.13 71.14 13.54L71.14 13.54L71.14 13.54Q70.67 13.96 70.10 14.22L70.10 14.22L70.10 14.22Q69.52 14.49 68.98 14.49L68.98 14.49L68.98 14.49Q68.24 14.49 67.98 13.19L67.98 13.19L67.98 13.19Q67.62 13.79 67.03 14.18L67.03 14.18L67.03 14.18Q66.44 14.56 65.46 14.56L65.46 14.56L65.46 14.56Q64.47 14.56 63.87 13.94L63.87 13.94L63.87 13.94Q63.27 13.33 63.28 12.45L63.28 12.45L63.28 12.45Q63.28 10.07 64.86 8.69L64.86 8.69L64.86 8.69Q65.53 8.12 66.11 7.94L66.11 7.94L66.11 7.94Q66.70 7.76 67.34 7.76L67.34 7.76L67.34 7.76Q67.98 7.76 68.39 7.98L68.39 7.98L68.39 7.98Q68.59 7.57 68.84 7.57L68.84 7.57L68.84 7.57Q69.33 7.57 69.77 8.00L69.77 8.00L69.77 8.00Q70.21 8.43 70.21 8.81L70.21 8.81L70.21 8.81Q70.01 9.27 69.64 9.91L69.64 9.91L69.64 9.91Q69.52 10.56 69.52 11.72L69.52 11.72L69.52 11.72Q69.52 12.88 69.82 12.88L69.82 12.88L69.82 12.88Q70.18 12.88 71.58 11.42L71.58 11.42L71.58 11.42Q71.83 11.14 71.95 11.14ZM65.34 11.98L65.34 11.98L65.34 11.98Q65.34 13.06 66.14 13.06L66.14 13.06L66.14 13.06Q66.99 13.05 67.55 12.15L67.55 12.15L67.55 12.15Q67.75 11.84 67.87 11.40L67.87 11.40L67.87 11.40Q67.87 9.83 68.15 8.71L68.15 8.71L68.15 8.71Q67.02 8.93 66.18 9.80L66.18 9.80L66.18 9.80Q65.34 10.67 65.34 11.98ZM72.67 7.87L72.67 7.87L72.67 7.87Q71.64 7.42 71.64 7L71.64 7L71.64 7Q71.64 6.78 71.82 6.79L71.82 6.79L71.82 6.79Q72.07 6.79 72.39 6.91L72.39 6.91L72.39 6.91Q72.72 7.03 73.05 7.10L73.05 7.10L73.05 7.10Q74.20 4.93 75.66 4.26L75.66 4.26L75.66 4.26Q76.15 4.03 76.64 4.02L76.64 4.02L76.64 4.02Q77.60 4.02 78.11 4.49L78.11 4.49L78.11 4.49Q78.62 4.96 78.62 5.63L78.62 5.63L78.62 5.63Q78.62 6.83 77.32 7.49L77.32 7.49L77.32 7.49Q76.26 8.02 74.42 8.15L74.42 8.15L74.42 8.15Q73.77 9.77 73.77 11.63L73.77 11.63L73.77 11.63Q73.77 13.02 74.41 13.24L74.41 13.24L74.41 13.24Q74.86 13.40 75.08 13.25L75.08 13.25L75.08 13.25Q75.31 13.10 75.43 12.86L75.43 12.86L75.43 12.86Q75.56 12.61 75.56 12.14L75.56 12.14L75.56 12.14Q75.57 11.66 75.30 11.33L75.30 11.33L75.30 11.33Q75.03 11.00 74.77 10.72L74.77 10.72L74.77 10.72Q74.90 10.26 75.14 9.95L75.14 9.95L75.14 9.95Q75.59 9.35 75.91 9.35L75.91 9.35L75.91 9.35Q76.23 9.35 76.43 9.58L76.43 9.58L76.43 9.58Q76.64 9.80 76.76 10.14L76.76 10.14L76.76 10.14Q76.89 10.47 76.96 10.86L76.96 10.86L76.96 10.86Q77.04 11.26 77.14 11.59L77.14 11.59L77.14 11.59Q77.24 11.93 77.38 12.15L77.38 12.15L77.38 12.15Q77.53 12.38 77.78 12.38L77.78 12.38L77.78 12.38Q78.02 12.38 78.22 12.19L78.22 12.19L78.22 12.19Q78.41 12.00 78.57 11.77L78.57 11.77L78.57 11.77Q78.72 11.55 78.85 11.36L78.85 11.36L78.85 11.36Q78.97 11.17 79.11 11.17L79.11 11.17L79.11 11.17Q79.24 11.17 79.37 11.40L79.37 11.40L79.37 11.40Q79.51 11.62 79.51 11.82L79.51 11.82L79.51 11.82Q79.51 12.26 79.06 12.88L79.06 12.88L79.06 12.88Q78.62 13.50 77.94 13.49L77.94 13.49L77.94 13.49Q77.25 13.48 76.87 13.20L76.87 13.20L76.87 13.20Q76.64 13.79 76.06 14.18L76.06 14.18L76.06 14.18Q75.49 14.57 74.43 14.57L74.43 14.57L74.43 14.57Q73.37 14.57 72.62 14.03L72.62 14.03L72.62 14.03Q71.71 13.37 71.71 11.98L71.71 11.98L71.71 11.98Q71.71 10.01 72.67 7.87ZM77.08 5.88L77.08 5.88L77.08 5.88Q77.07 5.39 76.73 5.39L76.73 5.39L76.73 5.39Q76.38 5.39 75.84 5.91L75.84 5.91L75.84 5.91Q75.29 6.43 74.79 7.35L74.79 7.35L74.79 7.35Q76.31 7.08 76.87 6.41L76.87 6.41L76.87 6.41Q77.07 6.16 77.08 5.88Z"></path></g><!----><!----></svg>